<svg xmlns="http://www.w3.org/2000/svg" xmlns:xlink="http://www.w3.org/1999/xlink" width="1080" zoomAndPan="magnify" viewBox="0 0 810 809.999993" height="1080" preserveAspectRatio="xMidYMid meet" version="1.0"><path fill="#ff1cd2" d="M 409.050781 568.011719 C 409.050781 572.46875 412.492188 576.113281 416.644531 576.113281 L 603.957031 576.113281 C 608.109375 576.113281 611.550781 572.46875 611.550781 568.011719 L 611.550781 519.414062 C 611.550781 514.957031 608.109375 511.3125 603.957031 511.3125 L 416.644531 511.3125 C 412.492188 511.3125 409.050781 514.957031 409.050781 519.414062 Z M 211.714844 574.1875 L 406.113281 411.175781 C 409.960938 407.9375 409.960938 401.960938 406.113281 398.722656 L 211.714844 235.8125 C 210.539062 234.8125 209.105469 234.171875 207.578125 233.964844 C 206.050781 233.761719 204.496094 233.996094 203.101562 234.644531 C 201.703125 235.296875 200.523438 236.335938 199.699219 237.636719 C 198.875 238.9375 198.441406 240.445312 198.449219 241.988281 L 198.449219 305.472656 C 198.449219 307.902344 199.460938 310.128906 201.386719 311.648438 L 312.558594 405 L 201.386719 498.351562 C 200.480469 499.109375 199.75 500.054688 199.242188 501.121094 C 198.738281 502.1875 198.464844 503.347656 198.449219 504.527344 L 198.449219 568.011719 C 198.449219 574.898438 206.449219 578.644531 211.714844 574.1875 Z M 777.601562 0 L 32.398438 0 C 14.480469 0 0 14.480469 0 32.398438 L 0 777.601562 C 0 795.519531 14.480469 810 32.398438 810 L 777.601562 810 C 795.519531 810 810 795.519531 810 777.601562 L 810 32.398438 C 810 14.480469 795.519531 0 777.601562 0 Z M 737.101562 737.101562 L 72.898438 737.101562 L 72.898438 72.898438 L 737.101562 72.898438 Z M 737.101562 737.101562 " fill-opacity="1" fill-rule="nonzero"/></svg>