<svg version="1.0" preserveAspectRatio="xMidYMid meet" viewBox="0 0 327.24 327.239997172" zoomAndPan="magnify" xmlns:xlink="http://www.w3.org/1999/xlink" xmlns="http://www.w3.org/2000/svg" style="max-height: 500px" width="327.24" height="327.239997172"><path fill-rule="nonzero" fill-opacity="1" d="M 163.621094 227.203125 C 163.621094 228.988281 164.996094 230.445312 166.65625 230.445312 L 241.582031 230.445312 C 243.242188 230.445312 244.621094 228.988281 244.621094 227.203125 L 244.621094 207.765625 C 244.621094 205.984375 243.242188 204.523438 241.582031 204.523438 L 166.65625 204.523438 C 164.996094 204.523438 163.621094 205.984375 163.621094 207.765625 Z M 84.683594 229.675781 L 162.445312 164.46875 C 163.984375 163.175781 163.984375 160.785156 162.445312 159.488281 L 84.683594 94.324219 C 84.214844 93.925781 83.640625 93.667969 83.03125 93.585938 C 82.421875 93.503906 81.800781 93.597656 81.242188 93.859375 C 80.683594 94.117188 80.210938 94.535156 79.878906 95.054688 C 79.550781 95.574219 79.375 96.179688 79.378906 96.796875 L 79.378906 122.1875 C 79.378906 123.160156 79.785156 124.050781 80.554688 124.660156 L 125.023438 162 L 80.554688 199.339844 C 80.191406 199.644531 79.898438 200.019531 79.699219 200.449219 C 79.496094 200.875 79.386719 201.339844 79.378906 201.8125 L 79.378906 227.203125 C 79.378906 229.960938 82.578125 231.457031 84.683594 229.675781 Z M 311.039062 0 L 12.960938 0 C 5.792969 0 0 5.792969 0 12.960938 L 0 311.039062 C 0 318.207031 5.792969 324 12.960938 324 L 311.039062 324 C 318.207031 324 324 318.207031 324 311.039062 L 324 12.960938 C 324 5.792969 318.207031 0 311.039062 0 Z M 294.839844 294.839844 L 29.160156 294.839844 L 29.160156 29.160156 L 294.839844 29.160156 Z M 294.839844 294.839844" fill="#ff1cd2"/></svg>