<svg version="1.0" preserveAspectRatio="xMidYMid meet" viewBox="0 315.89999727000003 790.56 144.179998754" zoomAndPan="magnify" xmlns:xlink="http://www.w3.org/1999/xlink" xmlns="http://www.w3.org/2000/svg" style="max-height: 500px" width="790.56" height="144.179998754"><defs><g/><clipPath id="ef796190f2"><path clip-rule="nonzero" d="M 6.5 323.054688 L 134 323.054688 L 134 449.804688 L 6.5 449.804688 Z M 6.5 323.054688"/></clipPath></defs><g fill-opacity="1" fill="#000000"><g transform="translate(145.318151, 442.340344)"><g><path d="M 2.4375 0 L 48.359375 -113.03125 L 50.640625 -113.03125 L 96.5625 0 L 72 0 L 67.578125 -11.75 L 31.421875 -11.75 L 27.15625 0 Z M 39.359375 -32.1875 L 59.5 -32.1875 L 49.578125 -60.5625 Z M 39.359375 -32.1875"/></g></g></g><g fill-opacity="1" fill="#000000"><g transform="translate(244.933199, 442.340344)"><g><path d="M 62.234375 -62.84375 L 105.25 -110.75 L 112.125 -110.75 L 112.125 0 L 90 0 L 90.15625 -60.859375 L 62.234375 -31.578125 L 34.328125 -60.859375 L 34.328125 0 L 12.203125 0 L 12.203125 -110.75 L 19.21875 -110.75 Z M 62.234375 -62.84375"/></g></g></g><g fill-opacity="1" fill="#000000"><g transform="translate(369.41386, 442.340344)"><g><path d="M 2.4375 0 L 48.359375 -113.03125 L 50.640625 -113.03125 L 96.5625 0 L 72 0 L 67.578125 -11.75 L 31.421875 -11.75 L 27.15625 0 Z M 39.359375 -32.1875 L 59.5 -32.1875 L 49.578125 -60.5625 Z M 39.359375 -32.1875"/></g></g></g><g fill-opacity="1" fill="#000000"><g transform="translate(469.028902, 442.340344)"><g><path d="M 34.015625 -59.34375 L 34.015625 0 L 12.203125 0 L 12.203125 -111.359375 L 18 -111.359375 L 73.0625 -47.296875 L 73.0625 -108.921875 L 95.03125 -108.921875 L 95.03125 2.28125 L 89.234375 2.28125 Z M 34.015625 -59.34375"/></g></g></g><g fill-opacity="1" fill="#000000"><g transform="translate(576.423976, 442.340344)"><g><path d="M 44.703125 -109.078125 C 53.742188 -109.078125 61.671875 -107.550781 68.484375 -104.5 C 75.304688 -101.445312 80.976562 -97.328125 85.5 -92.140625 C 90.03125 -86.953125 93.4375 -81.101562 95.71875 -74.59375 C 98.007812 -68.082031 99.15625 -61.394531 99.15625 -54.53125 C 99.15625 -47.664062 98.007812 -40.976562 95.71875 -34.46875 C 93.4375 -27.96875 90.03125 -22.125 85.5 -16.9375 C 80.976562 -11.75 75.304688 -7.628906 68.484375 -4.578125 C 61.671875 -1.523438 53.742188 0 44.703125 0 L 12.203125 0 L 12.203125 -109.078125 Z M 44.703125 -87.25 L 34.015625 -87.25 L 34.015625 -21.8125 L 44.703125 -21.8125 C 50.796875 -21.8125 56.003906 -22.976562 60.328125 -25.3125 C 64.648438 -27.65625 68.109375 -30.785156 70.703125 -34.703125 C 73.296875 -38.617188 75.023438 -42.914062 75.890625 -47.59375 C 76.753906 -52.269531 76.753906 -56.921875 75.890625 -61.546875 C 75.023438 -66.179688 73.296875 -70.453125 70.703125 -74.359375 C 68.109375 -78.273438 64.648438 -81.398438 60.328125 -83.734375 C 56.003906 -86.078125 50.796875 -87.25 44.703125 -87.25 Z M 44.703125 -87.25"/></g></g></g><g fill-opacity="1" fill="#000000"><g transform="translate(680.310433, 442.340344)"><g><path d="M 2.4375 0 L 48.359375 -113.03125 L 50.640625 -113.03125 L 96.5625 0 L 72 0 L 67.578125 -11.75 L 31.421875 -11.75 L 27.15625 0 Z M 39.359375 -32.1875 L 59.5 -32.1875 L 49.578125 -60.5625 Z M 39.359375 -32.1875"/></g></g></g><g clip-path="url(#ef796190f2)"><path fill-rule="nonzero" fill-opacity="1" d="M 70.691406 412.195312 C 70.691406 412.894531 71.230469 413.464844 71.882812 413.464844 L 101.277344 413.464844 C 101.929688 413.464844 102.46875 412.894531 102.46875 412.195312 L 102.46875 404.566406 C 102.46875 403.867188 101.929688 403.296875 101.277344 403.296875 L 71.882812 403.296875 C 71.230469 403.296875 70.691406 403.867188 70.691406 404.566406 Z M 39.722656 413.164062 L 70.230469 387.582031 C 70.835938 387.074219 70.835938 386.136719 70.230469 385.628906 L 39.722656 360.0625 C 39.539062 359.90625 39.3125 359.804688 39.074219 359.773438 C 38.835938 359.738281 38.589844 359.777344 38.371094 359.878906 C 38.152344 359.980469 37.96875 360.144531 37.839844 360.347656 C 37.707031 360.550781 37.640625 360.789062 37.640625 361.03125 L 37.640625 370.992188 C 37.640625 371.375 37.800781 371.726562 38.101562 371.964844 L 55.550781 386.613281 L 38.101562 401.261719 C 37.960938 401.382812 37.847656 401.53125 37.765625 401.695312 C 37.6875 401.863281 37.644531 402.046875 37.640625 402.230469 L 37.640625 412.195312 C 37.640625 413.273438 38.898438 413.863281 39.722656 413.164062 Z M 128.527344 323.054688 L 11.582031 323.054688 C 8.773438 323.054688 6.5 325.328125 6.5 328.140625 L 6.5 445.085938 C 6.5 447.898438 8.773438 450.167969 11.582031 450.167969 L 128.527344 450.167969 C 131.339844 450.167969 133.613281 447.898438 133.613281 445.085938 L 133.613281 328.140625 C 133.613281 325.328125 131.339844 323.054688 128.527344 323.054688 Z M 122.171875 438.730469 L 17.941406 438.730469 L 17.941406 334.496094 L 122.171875 334.496094 Z M 122.171875 438.730469" fill="#ff1cd2"/></g></svg>